<?xml version="1.0" encoding="UTF-8"?>
<svg id="Layer_1" xmlns="http://www.w3.org/2000/svg" version="1.1" viewBox="0 0 320 320">
  <!-- Generator: Adobe Illustrator 29.8.3, SVG Export Plug-In . SVG Version: 2.1.1 Build 3)  -->
  <defs>
    <style>
      .st0 {
        fill: #b2170b;
      }

      .st1 {
        fill: #fff;
      }
    </style>
  </defs>
  <circle class="st0" cx="160" cy="160" r="136.4"/>
  <path class="st1" d="M228.3,93.3H93.3c-9.2,0-16.6,7.5-16.6,16.7v33.3c9.2,0,16.6,7.5,16.6,16.7s-7.4,16.7-16.7,16.7v33.3c0,9.2,7.5,16.7,16.7,16.7h133.3c9.2,0,16.7-7.5,16.7-16.7v-100c0-9.2-6.7-16.7-15.1-16.7ZM207.7,170.8l-73.8,19.7-13.8-24,7.8-2.1,10.5,8.2,19.9-5.3-20-34.7,11.7-3.2,33.4,31.2,20.3-5.4c4.3-1.1,8.7,1.4,9.8,5.7,1.1,4.3-1.5,8.7-5.8,9.9h0Z"/>
</svg>