<?xml version="1.0" encoding="UTF-8"?>
<svg id="Layer_1" xmlns="http://www.w3.org/2000/svg" version="1.1" viewBox="0 0 320 320">
  <!-- Generator: Adobe Illustrator 29.8.3, SVG Export Plug-In . SVG Version: 2.1.1 Build 3)  -->
  <defs>
    <style>
      .st0 {
        fill: none;
      }

      .st1 {
        fill: #b2170b;
      }

      .st2 {
        fill: #fff;
      }
    </style>
  </defs>
  <circle class="st1" cx="160" cy="160" r="136.4"/>
  <path class="st0" d="M60.4,59.6h200v200H60.4V59.6Z"/>
  <path class="st2" d="M251,147.1c-1.2-2-12.7-6.9-12.7-6.9,2-1,3.4-1.3,3.4-5.6s0-6.2-3.1-6.2h-10.6c0,0,0-.2-.1-.3-6.8-14.9-7.8-18.7-18-23.8-13.7-6.8-39.4-7.2-49.4-7.2s-35.7.3-49.4,7.2c-10.2,5.1-10,7.7-18,23.8,0,0,0,.2-.2.3h-10.6c-3.1,0-3.1,1.6-3.1,6.2s1.4,4.5,3.4,5.6c0,0-11.2,5.4-12.7,6.9s-3.1,12.5-3.1,31.2,1.6,37.5,1.6,37.5h4.7c0,5.5.8,6.2,3.1,6.2h31.2c2.3,0,3.1-.8,3.1-6.2h100c0,5.5.8,6.2,3.1,6.2h32c1.6,0,2.3-1.2,2.3-6.2h4.7s1.6-19.1,1.6-37.5-2-29.3-3.1-31.2ZM109.3,164.6c-7.1.8-14.3,1.2-21.4,1.2-8,0-8.3.5-8.8-4.5-.2-2.3-.1-4.6.2-6.8l.2-1.2h1.2c4.7,0,9.1.2,17.4,2.6,4.2,1.3,8.2,3.3,11.8,5.9,1.7,1.2,2.1,2.4,2.1,2.4l-2.6.4ZM205.8,192.7l-1.7,4.3h-87.5s.2-.2-2-4.4c-1.6-3.1.4-5,3.5-6.1,6-2.2,23.5-8.3,42.2-8.3s36.6,5.3,42.4,8.3c2.1,1.1,4.8,1.9,3.1,6.2h0ZM105.4,139.4c-1.3,0-2.5,0-3.8,0,1-1.8,1.6-3.8,2.6-5.9,3.1-6.6,6.7-14.2,13.1-17.3,9.2-4.6,28.3-6.6,43.1-6.6s33.9,2,43.1,6.6c6.4,3.2,9.9,10.7,13.1,17.3,1,2.1,1.6,4.2,2.6,6-.8,0-1.7,0-3.8,0h-109.8ZM241.3,161.3c-.8,4.9,0,4.5-8.4,4.5-7.2,0-14.3-.4-21.4-1.2-1.1-.2-1.4-2.1-.5-2.8,3.5-2.7,7.5-4.6,11.8-5.9,8.3-2.4,13-2.8,17.6-2.6.6,0,1.2.5,1.2,1.2.2,2.3.2,4.6-.2,6.8h0Z"/>
</svg>