<?xml version="1.0" encoding="UTF-8"?>
<svg id="Layer_1" xmlns="http://www.w3.org/2000/svg" version="1.1" viewBox="0 0 320 320">
  <!-- Generator: Adobe Illustrator 29.8.3, SVG Export Plug-In . SVG Version: 2.1.1 Build 3)  -->
  <defs>
    <style>
      .st0 {
        fill: none;
      }

      .st1 {
        fill: #b2170b;
      }

      .st2 {
        fill: #fff;
      }
    </style>
  </defs>
  <circle class="st1" cx="160" cy="160" r="136.4"/>
  <path class="st0" d="M60.4,59.6h200v200H60.4V59.6Z"/>
  <path class="st2" d="M251.7,151.7v-16.7c-50-16.7-91.7-58.3-91.7-58.3,0,0-41.7,41.7-91.7,58.3v16.7c0,12.4,7.8,22.9,18.7,27.2-.3,20.8-2.7,45.3-10.3,64.5h166.7c-7.7-19.2-10-43.7-10.3-64.5,11.2-4.3,18.7-15.1,18.7-27.2ZM160,99.3c11.1,9.5,29.1,23.7,50.9,35.7h-101.8c21.8-12.1,39.8-26.2,50.9-35.7ZM168.3,151.7h25c0,6.9-5.6,12.5-12.5,12.5s-12.5-5.6-12.5-12.5ZM139.2,164.2c-6.9,0-12.5-5.6-12.5-12.5h25c0,6.9-5.6,12.5-12.5,12.5ZM110,151.7c0,6.9-5.6,12.5-12.5,12.5s-12.5-5.6-12.5-12.5h25ZM98.8,226.7c3.2-15.5,4.5-31.8,4.8-46.5,5.7-1.2,10.7-4.1,14.7-8.2,2.1,2.1,4.5,3.7,7.1,5.2-.8,15.6-2.2,33.3-4.3,49.4h-22.2ZM137.9,226.7c2-15.2,3.3-31.5,4-46.1,7-.7,13.4-3.7,18.1-8.5,4.7,4.7,11,7.8,18.1,8.5.8,14.6,2,30.8,4,46.1,0,0-44.2,0-44.2,0ZM198.9,226.7c-2.3-16.2-3.6-33.9-4.3-49.4,2.6-1.4,5.1-3.1,7.1-5.2,3.9,4,9,6.9,14.7,8.2.3,14.7,1.5,31,4.7,46.5h-22.2ZM222.5,164.2c-6.9,0-12.5-5.6-12.5-12.5h25c0,6.9-5.6,12.5-12.5,12.5Z"/>
</svg>