<?xml version="1.0" encoding="UTF-8"?>
<svg id="Layer_1" xmlns="http://www.w3.org/2000/svg" version="1.1" viewBox="0 0 320 320">
  <!-- Generator: Adobe Illustrator 29.8.3, SVG Export Plug-In . SVG Version: 2.1.1 Build 3)  -->
  <defs>
    <style>
      .st0 {
        fill: none;
      }

      .st1 {
        fill: #b2170b;
      }

      .st2 {
        fill: #fff;
      }
    </style>
  </defs>
  <circle class="st1" cx="160" cy="160" r="136.4"/>
  <path class="st0" d="M60.4,59.6h200v200H60.4V59.6Z"/>
  <path class="st2" d="M122.9,74.7c0-5.1,3.9-9.3,8.9-9.7l59.3-5c3.6-.3,6.8,2.6,6.8,6.2v12c0,3.4-2.8,6.2-6.2,6.2h-59c-5.4,0-9.8-4.4-9.8-9.8ZM129.8,96.9h61.3c.4,2,.6,4.1.6,6.2,0,17.3-14,31.2-31.2,31.2s-31.2-14-31.2-31.2.2-4.2.6-6.2h0ZM218.8,239.2l-20.9-35.4v43.1c0,.5,0,1,0,1.5l-68.1-97.2c6.5-2.8,13.5-4.3,20.8-4.3h19.7c6.2,0,12.2,1.1,17.9,3.1l37.1-64.1c-3-1.7-4-5.5-2.3-8.6s5.5-4,8.6-2.3l5.4,3.1,5.4,3.1c3,1.7,4,5.5,2.3,8.6l-21.7,37.5.6.4c6,3.4,8,11.1,4.6,17.1l-14.3,24.8c.8,1.1,1.5,2.3,2.2,3.4l29.7,50.3c4.4,7.4,1.9,17-5.5,21.4s-17,1.9-21.4-5.5h0ZM185.4,259.4h-50c-6.9,0-12.5-5.6-12.5-12.5v-43.1l-20.9,35.4c-4.4,7.4-14,9.9-21.4,5.5s-9.9-14-5.5-21.4l29.7-50.3c3.7-6.2,8.5-11.4,14.1-15.6l70.9,101.2c-1.4.5-2.8.8-4.3.8ZM176,184.4c5.2,0,9.4-4.2,9.4-9.4s-4.2-9.4-9.4-9.4-9.4,4.2-9.4,9.4,4.2,9.4,9.4,9.4Z"/>
</svg>