<?xml version="1.0" encoding="UTF-8"?>
<svg id="Layer_1" xmlns="http://www.w3.org/2000/svg" version="1.1" viewBox="0 0 320 320">
  <!-- Generator: Adobe Illustrator 29.8.3, SVG Export Plug-In . SVG Version: 2.1.1 Build 3)  -->
  <defs>
    <style>
      .st0 {
        fill: #b2170b;
      }

      .st1 {
        fill: #fff;
      }
    </style>
  </defs>
  <circle class="st0" cx="160" cy="160" r="136.4"/>
  <path class="st1" d="M223.8,72.1c-9.2,2.6-80.3,23-97.9,27.9-.7.2-1.1.8-1.1,1.5v96.5c0,.3-.2.6-.5.7l-10.9,3.7c-7.4,2.9-26.1,6.5-26.1,23.1s9.6,20.1,17.9,21.2c1,.2,2,.3,3.1.3,2.9,0,14.2-2.8,20.8-7.1,8.2-5.4,8.2-5.5,8.2-19.5v-82c0-.4.2-.3.6-.4l73.4-20.3c.4-.1.8.1,1,.5,0,0,0,.2,0,.2v60.8c0,.3-.2.6-.5.7-3.5,1.2-7.5,2.5-10.3,3.6-12,4.3-26.6,7.1-26.6,22.8s11,21.3,18.1,21.8c2.8.2,5.6,0,8.3-.4,3.5-.5,9.4-2.3,14.9-5.8,8.7-5.5,8.7-5.6,8.7-21.9v-127.3c0-.4-.3-.8-.8-.8,0,0-.1,0-.2,0Z"/>
</svg>