<?xml version="1.0" encoding="UTF-8"?>
<svg id="Layer_1" xmlns="http://www.w3.org/2000/svg" version="1.1" viewBox="0 0 320 320">
  <!-- Generator: Adobe Illustrator 29.8.3, SVG Export Plug-In . SVG Version: 2.1.1 Build 3)  -->
  <defs>
    <style>
      .st0 {
        fill: none;
      }

      .st1 {
        fill: #b2170b;
      }

      .st2 {
        fill: #fff;
      }
    </style>
  </defs>
  <circle class="st1" cx="160" cy="160" r="136.4"/>
  <path class="st0" d="M60.4,59.6h200v200H60.4V59.6Z"/>
  <path class="st2" d="M134.5,70.4c13.9-14.3,36.8-14.5,51.1-.6.2.2.4.4.6.6l7.8,8h11.1c19.9-.4,36.3,15.6,36.5,35.6,0,.3,0,.6,0,.9v11.1c-.1,0,7.8,7.8,7.8,7.8,14.3,13.9,14.5,36.8.6,51.1-.2.2-.4.4-.6.6l-8,7.8v11.1c.4,19.9-15.6,36.3-35.6,36.5-.3,0-.6,0-.9,0h-11.1c0-.1-7.8,7.8-7.8,7.8-13.9,14.3-36.8,14.5-51.1.6-.2-.2-.4-.4-.6-.6l-7.8-8h-11.1c-19.9.4-36.3-15.6-36.6-35.6,0-.3,0-.6,0-.9v-11.1c.1,0-7.8-7.8-7.8-7.8-14.3-13.9-14.5-36.8-.6-51.1.2-.2.4-.4.6-.6l8-7.8v-11.1c-.4-19.9,15.6-36.3,35.6-36.6.3,0,.6,0,.9,0h11.1c0,.1,7.8-7.8,7.8-7.8ZM147.9,197.1c0,6.9,5.6,12.5,12.5,12.5s12.5-5.6,12.5-12.5-5.6-12.5-12.5-12.5-12.5,5.6-12.5,12.5M167.9,171.7c.5-6.7,2.5-10.2,10.6-15.8,8.4-5.9,13.1-13.6,13.1-24.8,0-16.6-11.5-27.8-28.3-27.8s-22.4,6.2-26.2,16.1c-1.2,2.7-1.8,5.7-1.7,8.6,0,4.9,2.5,8,6.8,8s5.7-1.8,7.1-6.4c2-7.4,6.6-11.4,13.4-11.4s12.9,5.6,12.9,13.6-2.6,11.1-10.3,16.6c-7.7,5.4-11.6,11.4-11.6,20.5v1.4c0,5.4,2.6,9.3,7.3,9.3s6.3-3,6.9-7.8"/>
</svg>