<?xml version="1.0" encoding="UTF-8"?>
<svg id="Layer_1" xmlns="http://www.w3.org/2000/svg" version="1.1" viewBox="0 0 320 320">
  <!-- Generator: Adobe Illustrator 29.8.3, SVG Export Plug-In . SVG Version: 2.1.1 Build 3)  -->
  <defs>
    <style>
      .st0 {
        fill: none;
      }

      .st1 {
        fill: #b2170b;
      }

      .st2 {
        fill: #fff;
      }
    </style>
  </defs>
  <circle class="st1" cx="160" cy="160" r="136.4"/>
  <path class="st0" d="M60.4,59.6h200v200H60.4V59.6Z"/>
  <path class="st2" d="M207.9,133.1c-3-3.4-6.1-6.8-9.3-10.1l-2.4-2.2,1.2-1c8.3-7.2,11.3-18.8,7.5-29.1-5.6-11.6-17.4-18.8-30.2-18.5v16.7c6,0,11.6,3.1,14.7,8.3,1.4,3.3,0,7-3.9,10.9-.6.7-1.2,1.1-1.8,1.7-25-20.1-52.4-31.4-65.8-18-1.4,1.4-2.6,3.1-3.4,4.9v.8l-1.5,4.4-36.7,109.2c-4.8,14.3,2.8,29.8,17.1,34.6,2.8,1,5.8,1.4,8.8,1.4,2.8,0,5.6-.5,8.3-1.4l114.3-37.9c1.4-.5,2.6-1.4,3.6-2.6l1.7-1.5c11.9-12,4.3-35.1-11.7-57.5,9.5-5.5,20.4-8.1,31.4-7.4v-16.7c-14.7-.8-29.3,3-41.7,10.9ZM105.4,230c-5.6,1.9-11.7-1.2-13.6-6.8-.7-2.2-.7-4.6,0-6.8l11.3-34.2c8.1,15.4,20.5,28.1,35.7,36.6l-33.5,11.2ZM163.7,210.6c-25.6-6.8-45.7-26.8-52.5-52.4l8.3-25,.5.8c.9,1.8,2.1,3.7,3.2,5.7s1.3,2.4,2.2,3.7,2.7,4,4.3,6.1,1.6,2.3,2.5,3.5,3.6,4.6,5.5,6.8l2.4,2.9c2.8,3.3,5.8,6.4,9,9.7s5.7,5.3,8.3,8.3l2.7,2.3,6.5,5.3,3.1,2.3c2.3,1.7,4.6,3.3,6.9,4.8l2.6,1.7c3,1.8,6,3.6,8.9,5.1h.4l-24.9,8.5ZM218,192h-.5c-5.8,3.2-29.7-4.7-56.6-31.7-2.8-2.8-5.5-5.6-7.9-8.3l-2.4-2.9-4.4-5.3-2.4-3.3c-1.1-1.6-2.3-3.1-3.3-4.6l-2.2-3.5-2.4-3.9c-.7-1.2-1.2-2.2-1.8-3.3s-1.2-2.2-1.8-3.3c-.4-1-.8-2-1.2-3-.4-1.1-.9-2.2-1.2-3.2s-.4-1.6-.7-2.6-.4-1.8-.6-2.7c0-.7,0-1.4,0-2.2,0-.7,0-1.3,0-2l.9-2.6c3-3,18.6,0,39.4,15.8-3.5,1.6-7.3,2.6-11.2,2.9v16.7c8.9-.5,17.4-3.2,25-7.8l4,3.8c3.5,3.5,6.7,7.1,9.8,10.7-4.8,8.6-6.5,18.6-5,28.3l16.7-3.3c-.5-3.1-.5-6.2,0-9.3,2.5,3.9,4.8,7.9,6.7,12.1,4.7,11,4.3,17.2,2.8,18.6Z"/>
</svg>