<?xml version="1.0" encoding="UTF-8"?>
<svg id="Layer_1" xmlns="http://www.w3.org/2000/svg" version="1.1" viewBox="0 0 320 320">
  <!-- Generator: Adobe Illustrator 29.8.3, SVG Export Plug-In . SVG Version: 2.1.1 Build 3)  -->
  <defs>
    <style>
      .st0 {
        fill: #b2170b;
      }

      .st1 {
        fill: #fff;
      }
    </style>
  </defs>
  <circle class="st0" cx="160" cy="160" r="136.4"/>
  <path class="st1" d="M78.8,103.8v62.5h162.5v-12.5h-75v-12.5h75v-12.5h-75v-12.5h75v-12.5H78.8ZM91.2,110c3.5,0,6.2,2.8,6.2,6.2s-2.8,6.2-6.2,6.2-6.2-2.8-6.2-6.2,2.8-6.2,6.2-6.2ZM116.2,110c3.5,0,6.2,2.8,6.2,6.2s-2.8,6.2-6.2,6.2-6.2-2.8-6.2-6.2,2.8-6.2,6.2-6.2ZM141.2,110c3.5,0,6.2,2.8,6.2,6.2s-2.8,6.2-6.2,6.2-6.2-2.8-6.2-6.2,2.8-6.2,6.2-6.2ZM103.8,128.8c3.5,0,6.2,2.8,6.2,6.2s-2.8,6.2-6.2,6.2-6.2-2.8-6.2-6.2,2.8-6.2,6.2-6.2ZM128.8,128.8c3.5,0,6.2,2.8,6.2,6.2s-2.8,6.2-6.2,6.2-6.2-2.8-6.2-6.2,2.8-6.2,6.2-6.2ZM153.8,128.8c3.5,0,6.2,2.8,6.2,6.2s-2.8,6.2-6.2,6.2-6.2-2.8-6.2-6.2,2.8-6.2,6.2-6.2ZM91.2,147.5c3.5,0,6.2,2.8,6.2,6.2s-2.8,6.2-6.2,6.2-6.2-2.8-6.2-6.2,2.8-6.2,6.2-6.2ZM116.2,147.5c3.5,0,6.2,2.8,6.2,6.2s-2.8,6.2-6.2,6.2-6.2-2.8-6.2-6.2,2.8-6.2,6.2-6.2ZM141.2,147.5c3.5,0,6.2,2.8,6.2,6.2s-2.8,6.2-6.2,6.2-6.2-2.8-6.2-6.2,2.8-6.2,6.2-6.2ZM78.8,178.8v12.5h162.5v-12.5H78.8ZM78.8,203.8v12.5h162.5v-12.5H78.8Z"/>
</svg>