<?xml version="1.0" encoding="UTF-8"?>
<svg id="Layer_1" xmlns="http://www.w3.org/2000/svg" version="1.1" viewBox="0 0 320 320">
  <!-- Generator: Adobe Illustrator 29.8.3, SVG Export Plug-In . SVG Version: 2.1.1 Build 3)  -->
  <defs>
    <style>
      .st0 {
        fill: #b2170b;
      }

      .st1 {
        fill: #fff;
      }
    </style>
  </defs>
  <circle class="st0" cx="160" cy="160" r="136.4"/>
  <path class="st1" d="M157.2,77.2c-42.1.2-75.9,9.6-85.9,53.4-9,39.3,2,68.9,8.8,81.5,7-.9,20.3-5.5,26.9-.3,17.5,13.9,24.8,25.2,39.8,22.5,7.5-1.4,14.8-7.3,20.6-14.4,6.9,1.4,14.3,2,21.9,2.2,3,0,6,0,9,0,1.1,3,2.2,5.8,3.5,8.1,2.9,5.5,6.2,9.6,11,10.7,10.3,2.5,22.9,2.7,37.4.2l1.2.2c0-.1,0-.3,0-.4,0,0,0,0,0,0v-.2c1.8-14.3-.5-31.5-7.1-47.3,0,0,0,0,0,0l-2.8-6.4c-6.4,2.8-24.1,5.9-42.3,7.3-1.4-12-1.7-26.1-.4-41.5,14.6-7.3,27.1-9.4,40-13-.4-2.2-.9-4.3-1.4-6.5-21,5.3-48.2,14.6-71.8,25.2-1.8.8-4.5,3.4-7.1,7-2.2,3.1-4.5,6.9-6.7,10.9,2.4,3.3,3.9,7.3,3.9,11.6s-.2,3.3-.6,4.9c2.1.5,3.4,1.1,4.7,1.4,1.9.5,4.3.9,10.8.6l.3,7c-6.9.3-10.3,0-13-.8-2.2-.6-3.4-1.2-5.9-1.7-.8,1.1-1.7,2.2-2.8,3.1l16.4,8.2-3.1,6.3-20.6-10.3c-1.8.6-3.8.9-5.7.9-10.7,0-19.5-8.8-19.5-19.5s8.8-19.5,19.5-19.5,7.3,1.1,10.3,3c2-3.6,4.1-7.1,6.3-10.1,3-4.1,6-7.5,9.9-9.3,24-10.8,51.4-20.2,72.8-25.6-7.5-24.6-24.9-49.5-78.5-49.2ZM191.6,156.7c-.9,13.9-.5,26.7.8,37.9-4.2.2-8.4.3-12.4.4,0-.2,0-.3,0-.5.3-12.5-2.8-28.1,4.9-33.5,2.2-1.5,4.4-3,6.7-4.3h0ZM136.2,175.4c-6.9,0-12.5,5.6-12.5,12.5s5.6,12.5,12.5,12.5,12.5-5.6,12.5-12.5-5.6-12.5-12.5-12.5ZM237.7,195.6c1.8,4.4,3.3,8.9,4.5,13.5-4.3,1.1-9.3,2.1-14.6,3-1.1-4.1-2.7-8.1-5.2-13.4,5.8-.9,11-1.9,15.3-3.1h0ZM215.1,199.8c2.9,5.7,4.6,9.6,5.7,13.4-5.8.8-11.6,1.3-17.4,1.6-.7-2.4-1.3-5-1.9-7.7-.4-2-.8-3.9-1.1-5.9,5-.4,10-.9,14.7-1.4h0ZM193.3,201.6c.4,2.4.8,4.7,1.3,6.9.5,2.2,1,4.4,1.5,6.5-2.2,0-4.5,0-6.7,0-6.1-.1-11.9-.7-17.3-1.6,2.6-3.9,4.6-7.9,6-11.4,4.9,0,10-.1,15.2-.4h0ZM243.7,216c1.1,6.5,1.6,12.9,1.2,18.8-5.1.7-9.9,1-14.3,1-.5-7-.9-12.3-1.6-16.8,5.3-.9,10.2-1.9,14.7-3.1h0ZM222.2,220.1c.5,3.9.9,8.8,1.4,15.4-3.3-.3-6.3-.8-9.2-1.4-1.3-.3-3.9-2.5-6.4-7.1-.8-1.5-1.6-3.2-2.3-5.2,5.6-.3,11.2-.9,16.5-1.6Z"/>
</svg>